<?xml version="1.0" encoding="UTF-8" standalone="no"?>
<!-- Created with Inkscape (http://www.inkscape.org/) -->

<svg
   width="10mm"
   height="10mm"
   viewBox="0 0 10 10"
   version="1.1"
   id="svg5"
   inkscape:version="1.2.1 (9c6d41e, 2022-07-14)"
   sodipodi:docname="unread.svg"
   xmlns:inkscape="http://www.inkscape.org/namespaces/inkscape"
   xmlns:sodipodi="http://sodipodi.sourceforge.net/DTD/sodipodi-0.dtd"
   xmlns:xlink="http://www.w3.org/1999/xlink"
   xmlns="http://www.w3.org/2000/svg"
   xmlns:svg="http://www.w3.org/2000/svg">
  <sodipodi:namedview
     id="namedview7"
     pagecolor="#ffffff"
     bordercolor="#000000"
     borderopacity="0.25"
     inkscape:showpageshadow="2"
     inkscape:pageopacity="0.0"
     inkscape:pagecheckerboard="0"
     inkscape:deskcolor="#d1d1d1"
     inkscape:document-units="mm"
     showgrid="false"
     inkscape:lockguides="true"
     inkscape:zoom="8.4398481"
     inkscape:cx="39.692658"
     inkscape:cy="20.853456"
     inkscape:window-width="1309"
     inkscape:window-height="762"
     inkscape:window-x="1547"
     inkscape:window-y="233"
     inkscape:window-maximized="0"
     inkscape:current-layer="layer1" />
  <defs
     id="defs2">
    <linearGradient
       inkscape:collect="always"
       id="linearGradient979">
      <stop
         style="stop-color:#adebff;stop-opacity:1;"
         offset="0"
         id="stop975" />
      <stop
         style="stop-color:#2b42b5;stop-opacity:1;"
         offset="1"
         id="stop977" />
    </linearGradient>
    <linearGradient
       inkscape:collect="always"
       xlink:href="#linearGradient979"
       id="linearGradient981"
       x1="0.72302419"
       y1="3.6290251"
       x2="6.1178969"
       y2="3.6290251"
       gradientUnits="userSpaceOnUse"
       gradientTransform="matrix(1.3195876,0,0,1.4342857,-9.6442881,-0.92253101)" />
  </defs>
  <g
     inkscape:label="Layer 1"
     inkscape:groupmode="layer"
     id="layer1">
    <rect
       style="fill:url(#linearGradient981);fill-opacity:1;stroke:none;stroke-width:2.75148"
       id="rect344"
       width="7.1190071"
       height="6.9799643"
       x="-8.6901941"
       y="0.79254562"
       ry="1.4342858"
       transform="rotate(-90)" />
    <g
       id="g4624">
      <path
         id="path4615"
         style="fill:#ffffff;stroke-width:2"
         d="M 1.5849162 3.5935791 L 1.5849162 6.613033 C 1.5849162 6.6360958 1.5886494 6.6580814 1.5957682 6.6786621 L 3.4344157 4.9113281 L 1.5849162 3.5935791 z M 7.0357463 3.6375041 L 5.1123494 4.9128784 L 7.0238607 6.6807292 C 7.0314615 6.6595436 7.0357463 6.6368994 7.0357463 6.613033 L 7.0357463 3.6375041 z M 4.9175293 5.0415527 L 4.2441854 5.4880371 L 3.6230347 5.0456868 L 1.784904 6.8130208 L 6.8336914 6.8130208 L 4.9175293 5.0415527 z " />
      <path
         style="fill:#ffffff;stroke-width:2"
         d="m 1.784904,3.3646525 c -0.034455,0 -0.066323,0.00907 -0.094568,0.024288 L 4.2498698,5.2131185 6.9649495,3.4121948 c -0.034825,-0.029484 -0.079779,-0.047542 -0.129191,-0.047542 z"
         id="rect3161" />
    </g>
    <rect
       style="fill:#ff3913;fill-opacity:1;stroke:none;stroke-width:0.226449;stroke-dasharray:none;stroke-opacity:1"
       id="rect4678"
       width="4.6710458"
       height="1.698562"
       x="4.547111"
       y="0.79142767"
       ry="0.84928101" />
    <g
       aria-label="1,042"
       id="text4840"
       style="font-size:1.41111px;font-family:'Al Bayan';-inkscape-font-specification:'Al Bayan';fill:#ff3913;stroke-width:0.2">
      <path
         d="m 5.5376948,1.0893044 -0.282222,0.1876776 0.064911,0.091722 0.1227665,-0.086078 0.1030111,-0.071967 h 0.00564 c -0.00141,0.019756 -0.00564,0.2455332 -0.00564,0.2638776 V 2.0615592 H 5.6562281 V 1.0893044 Z"
         style="font-family:'Kohinoor Devanagari';-inkscape-font-specification:'Kohinoor Devanagari';fill:#ffffff"
         id="path4944" />
      <path
         d="m 5.9328034,2.2605257 c 0.080433,-0.028222 0.1777998,-0.1185332 0.1777998,-0.2412998 0,-0.081844 -0.045155,-0.1255888 -0.103011,-0.1255888 -0.0508,0 -0.086078,0.036689 -0.086078,0.084667 v 0.00988 c 0.052211,0.026811 0.080433,0.052211 0.080433,0.098778 0,0.047978 -0.042333,0.0889 -0.1044221,0.115711 z"
         style="font-family:'Kohinoor Devanagari';-inkscape-font-specification:'Kohinoor Devanagari';fill:#ffffff"
         id="path4946" />
      <path
         d="m 6.5776796,2.0756703 c 0.218722,0 0.3245553,-0.1650999 0.3245553,-0.5051774 0,-0.3372553 -0.094544,-0.4952996 -0.3146776,-0.4952996 -0.218722,0 -0.3245553,0.166511 -0.3245553,0.5065885 0,0.3358442 0.094544,0.4938885 0.3146776,0.4938885 z M 6.3773019,1.5704929 c 0,-0.2652887 0.049389,-0.3936997 0.2017888,-0.3936997 0.1509888,0 0.2088443,0.1382888 0.2088443,0.4049886 0,0.2652887 -0.0508,0.3922886 -0.2017888,0.3922886 -0.1509887,0 -0.2088443,-0.1368777 -0.2088443,-0.4035775 z"
         style="font-family:'Kohinoor Devanagari';-inkscape-font-specification:'Kohinoor Devanagari';fill:#ffffff"
         id="path4948" />
      <path
         d="M 7.4553899,1.8273149 V 2.0615592 H 7.5640454 V 1.8273149 H 7.7037453 V 1.7285372 H 7.5640454 V 1.0893044 H 7.4201122 l -0.3993442,0.6406439 0.026811,0.097367 z m 0.00564,-0.6237106 c -0.00141,0.016933 -0.00564,0.094544 -0.00564,0.2243665 V 1.7285372 H 7.1378902 L 7.3509678,1.3828153 c 0.055033,-0.0889 0.098778,-0.166511 0.1044221,-0.179211 z"
         style="font-family:'Kohinoor Devanagari';-inkscape-font-specification:'Kohinoor Devanagari';fill:#ffffff"
         id="path4950" />
      <path
         d="M 7.9125875,1.9571371 C 7.9210542,1.9500815 8.0508763,1.8117927 8.059343,1.8047372 8.0706319,1.7934483 8.1933984,1.6537484 8.200454,1.6452817 8.290765,1.5408596 8.3387428,1.4392597 8.3387428,1.3291931 c 0,-0.1467555 -0.1016,-0.2483554 -0.2666998,-0.2483554 -0.1580444,0 -0.2511776,0.1001888 -0.2751665,0.2130776 l 0.1128888,0.026811 c 0.0127,-0.073378 0.057855,-0.1396999 0.1552221,-0.1396999 0.094544,0 0.1580443,0.059267 0.1580443,0.1566332 0,0.087489 -0.029633,0.1552222 -0.1015999,0.2384776 -0.014111,0.019756 -0.3104442,0.3555998 -0.3428997,0.3852331 l 0.016933,0.1001888 H 8.3584983 V 1.9613704 H 8.0748652 c -0.0127,0 -0.1509888,0 -0.1622777,0.00141 z"
         style="font-family:'Kohinoor Devanagari';-inkscape-font-specification:'Kohinoor Devanagari';fill:#ffffff"
         id="path4952" />
    </g>
  </g>
</svg>
