<?xml version="1.0" encoding="UTF-8" standalone="no"?>
<!-- Created with Inkscape (http://www.inkscape.org/) -->

<svg
   width="10mm"
   height="10mm"
   viewBox="0 0 10 10"
   version="1.1"
   id="svg1179"
   xml:space="preserve"
   inkscape:version="1.2.1 (9c6d41e, 2022-07-14)"
   sodipodi:docname="logo.svg"
   xmlns:inkscape="http://www.inkscape.org/namespaces/inkscape"
   xmlns:sodipodi="http://sodipodi.sourceforge.net/DTD/sodipodi-0.dtd"
   xmlns="http://www.w3.org/2000/svg"
   xmlns:svg="http://www.w3.org/2000/svg"><sodipodi:namedview
     id="namedview1181"
     pagecolor="#ffffff"
     bordercolor="#000000"
     borderopacity="0.25"
     inkscape:showpageshadow="2"
     inkscape:pageopacity="0.0"
     inkscape:pagecheckerboard="0"
     inkscape:deskcolor="#d1d1d1"
     inkscape:document-units="mm"
     showgrid="false"
     inkscape:lockguides="false"
     inkscape:zoom="5.3180608"
     inkscape:cx="55.095271"
     inkscape:cy="61.770636"
     inkscape:window-width="1470"
     inkscape:window-height="891"
     inkscape:window-x="0"
     inkscape:window-y="161"
     inkscape:window-maximized="0"
     inkscape:current-layer="layer1" /><defs
     id="defs1176" /><g
     inkscape:label="Layer 1"
     inkscape:groupmode="layer"
     id="layer1"><path
       style="fill:#000000;stroke-width:0.0154229"
       d="M 2.4498822,9.3347909 C 2.3575973,9.2940437 2.3223168,9.2081907 2.3209708,9.0210912 l -5.754e-4,-0.080966 h -0.051181 c -0.028149,0 -0.088877,-0.011061 -0.1349495,-0.024572 C 1.8770582,8.840092 1.6709457,8.6114192 1.6265389,8.352243 1.6148973,8.2842959 1.6110652,7.7833254 1.6141654,6.7346669 l 0.00449,-1.5191476 0.034323,-0.055183 c 0.018878,-0.030357 0.053579,-0.06505 0.077114,-0.077112 l 0.042792,-0.021929 0.7634294,-0.00773 0.7634293,-0.00773 0.063566,-0.1854921 C 3.3982729,4.7583317 3.43179,4.6524931 3.4377946,4.6251553 l 0.010917,-0.049705 H 2.6272351 1.8057582 l -0.063042,-0.030515 c -0.034673,-0.016785 -0.076771,-0.053225 -0.09355,-0.080975 L 1.6186573,4.4135097 V 2.8712276 1.3289463 l 0.034769,-0.091291 C 1.7259163,1.0473354 1.8563489,0.89937655 2.0243976,0.8168524 l 0.08779,-0.0431122 h 2.9226163 2.9226238 l 0.092537,0.0452805 c 0.130348,0.063786 0.25123,0.1900369 0.3250346,0.3394802 l 0.060535,0.1225735 0.00399,1.5585139 0.00399,1.558513 -0.027124,0.052883 c -0.014907,0.029084 -0.046712,0.067254 -0.070654,0.084829 l -0.043532,0.031946 -0.8471367,0.00421 c -0.4659238,0.00237 -0.847135,0.00729 -0.847135,0.011052 0,0.019726 0.1458199,0.4348739 0.158501,0.4512523 l 0.014926,0.019278 h 0.7389015 0.7389017 l 0.049629,0.021148 c 0.027296,0.011632 0.066979,0.039952 0.088185,0.062934 l 0.038558,0.041787 v 1.62201 1.6220068 L 8.3861674,8.527673 C 8.2894966,8.7317558 8.089239,8.8851249 7.8648996,8.9268922 c -0.050895,0.00947 -0.1012131,0.019576 -0.1118154,0.022447 -0.013523,0.00369 -0.019279,0.044894 -0.019279,0.1382715 0,0.1526773 -0.022994,0.2080806 -0.1019018,0.2455244 l -0.049276,0.023378 H 7.0469736 6.5113272 L 6.4576121,9.3233207 C 6.3855162,9.278782 6.36117,9.2133148 6.36117,9.0639997 V 8.9401217 H 5.0348075 3.7084453 l -6.654e-4,0.088682 c -0.0011,0.1438925 -0.021639,0.218356 -0.074984,0.2717209 l -0.048286,0.0483 -0.5433747,0.00351 -0.5433746,0.00351 -0.047868,-0.02113 z M 7.7183734,8.3433537 c 0.043251,-0.018927 0.09354,-0.070335 0.1253112,-0.1281049 l 0.021207,-0.038556 V 6.9891359 c 0,-0.6531562 -0.00484,-1.2118475 -0.010753,-1.2415371 -0.00592,-0.029689 -0.02886,-0.069597 -0.050983,-0.088681 L 7.7629302,5.624216 H 7.3540457 6.9451617 l 0.010178,0.034702 c 0.00559,0.019085 0.082975,0.2498496 0.1719553,0.5128085 0.4368555,1.2910059 0.4202363,1.226723 0.3320999,1.2844719 l -0.040395,0.026468 H 6.9752658 6.5315321 L 6.4921614,7.443294 C 6.4486249,7.3997569 6.4103748,7.3024441 6.2227193,6.7577926 6.1525776,6.554212 6.0890752,6.3715018 6.0816035,6.3517708 l -0.013595,-0.03587 -0.078257,0.085627 c -0.051525,0.056377 -0.1132829,0.1028766 -0.18079,0.1361224 L 5.7064294,6.588146 5.0603153,6.5926232 4.4142014,6.5971003 4.3137302,6.5636622 C 4.212461,6.5300029 4.1162705,6.4525502 4.0394218,6.3428297 L 4.0080327,6.2980144 3.9259018,6.5279031 C 3.8807301,6.6543427 3.7951865,6.8997766 3.7358049,7.073314 3.6764231,7.2468504 3.6175009,7.4046115 3.6048657,7.4238957 3.5922314,7.4431825 3.5565802,7.4659895 3.5256432,7.4745839 3.4595413,7.4929401 2.7942947,7.4941779 2.6844889,7.476164 2.5973472,7.4618548 2.5526131,7.4167235 2.5520788,7.3425733 2.5518989,7.3164128 2.618257,7.1047303 2.6995616,6.8721773 2.9330477,6.204344 3.1223798,5.6513422 3.1223798,5.6372084 c 0,-0.00711 -0.1773214,-0.012975 -0.3940477,-0.012975 H 2.3342847 l -0.0425,0.021982 c -0.023375,0.012088 -0.050033,0.038512 -0.05924,0.058721 -0.011451,0.025133 -0.018308,0.4238162 -0.021702,1.2619721 l -0.00496,1.2252298 0.026731,0.049977 c 0.045301,0.084697 0.090665,0.1033657 0.2720518,0.1119609 0.347322,0.01646 5.1742937,0.00658 5.2137144,-0.010701 z M 4.3565073,7.7101278 c -0.02952,-0.014827 -0.069426,-0.050548 -0.088681,-0.079368 l -0.035009,-0.052409 6.17e-5,-0.094111 C 4.2329407,7.3785925 4.264863,7.3100142 4.3355171,7.2637276 l 0.042477,-0.027828 H 5.036865 5.695736 l 0.041974,0.03134 C 5.800026,7.3137666 5.836798,7.393645 5.836769,7.4824213 5.8367384,7.5783693 5.799014,7.6562984 5.7304088,7.7021302 L 5.6780012,7.7371389 5.044091,7.7371082 4.4101805,7.7370775 4.3565076,7.7101093 Z M 5.7376168,6.3232032 c 0.034521,-0.018479 0.082683,-0.063593 0.1070256,-0.1002484 l 0.044258,-0.066648 0.012317,-0.1696501 c 0.00678,-0.093309 0.00798,-0.3570384 0.0027,-0.5860676 l -0.00962,-0.4164158 -0.028274,-0.05628 c -0.015555,-0.030954 -0.054515,-0.0726 -0.086587,-0.092537 l -0.058315,-0.036256 -0.6383261,-0.00448 c -0.4156251,-0.0029 -0.6663738,0.00132 -0.7187194,0.012185 -0.097399,0.020217 -0.1700868,0.084785 -0.1935511,0.1719264 -0.010428,0.038723 -0.014646,0.2534726 -0.011705,0.5959393 l 0.0046,0.5353961 0.033793,0.063154 c 0.045934,0.085838 0.1306384,0.1569043 0.2010755,0.1686932 0.03199,0.00536 0.065105,0.012281 0.073588,0.015398 0.00848,0.00307 0.2826231,0.0043 0.6092013,0.00263 l 0.5937783,-0.00307 z M 4.8188844,5.9709754 c 0,-0.012861 0.021266,-0.1000025 0.047257,-0.193644 L 4.9133976,5.6070756 4.8735441,5.5757268 C 4.8161762,5.5306043 4.7880308,5.466813 4.7880967,5.3820723 4.7882945,5.1236449 5.1319913,5.0538833 5.2484386,5.2886335 l 0.036272,0.073127 -0.018576,0.077428 c -0.013469,0.05614 -0.032839,0.089187 -0.070448,0.1201883 l -0.051872,0.042761 0.043749,0.1459907 c 0.024062,0.08029 0.048668,0.1685466 0.05468,0.1961143 l 0.01093,0.050126 H 5.0360288 4.8188839 Z M 4.5597438,4.4173802 4.5664683,4.2747193 4.6065176,4.1976073 C 4.6577396,4.0989803 4.7442377,4.0157872 4.8420168,3.9711072 l 0.077114,-0.035238 0.1156712,8.638e-4 0.1156712,8.63e-4 0.076321,0.036748 c 0.093435,0.044982 0.179902,0.1317015 0.227331,0.2279907 l 0.03565,0.07238 0.00296,0.1388052 0.00296,0.1388053 H 5.6392529 5.7828107 L 5.7874307,4.445506 C 5.7978101,4.2056995 5.7390858,4.0179951 5.6103823,3.8795735 5.4577472,3.7154127 5.2703149,3.6316867 5.0502267,3.6293525 4.7706155,3.6263677 4.5604559,3.7252106 4.4090795,3.9308411 4.30068,4.0780914 4.2637174,4.250247 4.2781295,4.5407499 c 6.833e-4,0.013905 0.039142,0.019278 0.1379221,0.019278 h 0.1369658 z m 0.6909795,0.021359 V 4.3174365 L 5.218516,4.2764926 C 5.1169996,4.1474361 4.8840259,4.1657397 4.8248266,4.30742 4.8130754,4.3355469 4.8034618,4.4038882 4.8034618,4.4592967 V 4.5600411 H 5.0270925 5.2507233 Z M 3.6533221,4.0066644 c 0.010795,-0.01747 0.6035753,-1.7353099 0.6445969,-1.8680052 0.041434,-0.1340261 0.08191,-0.210708 0.1238783,-0.2346818 l 0.03465,-0.019796 H 5.038298 5.6201484 l 0.038244,0.038556 c 0.027643,0.027872 0.097839,0.2095572 0.2532433,0.6554694 0.3137256,0.9002002 0.3979131,1.1404592 0.4539458,1.2955164 l 0.050161,0.1388062 0.6089024,0.00456 c 0.3348962,0.00246 0.6395263,1.606e-4 0.6769564,-0.00518 0.045578,-0.0065 0.082596,-0.024247 0.1120852,-0.053734 L 7.8577208,3.9141466 7.8536036,2.6810204 7.8494689,1.4478942 7.818624,1.4133061 C 7.8016487,1.3942827 7.7654453,1.3692634 7.7381497,1.3577106 L 7.6885202,1.3367032 H 5.0119385 2.3353581 l -0.054568,0.050126 c -0.034554,0.031744 -0.059792,0.072749 -0.068808,0.1118151 -0.00801,0.034676 -0.014401,0.5633519 -0.014607,1.2073309 l -3.596e-4,1.1456395 0.020745,0.049626 c 0.025737,0.061574 0.057563,0.088698 0.1220108,0.1039978 0.070252,0.01668 1.3033081,0.01804 1.3135603,0.00149 z"
       id="path1904" /></g></svg>
