<?xml version="1.0"?>
<svg xmlns="http://www.w3.org/2000/svg" version="1.1" class="highcharts-root" style="font-family:&quot;Lucida Grande&quot;, &quot;Lucida Sans Unicode&quot;, Arial, Helvetica, sans-serif;font-size:12px;" width="401" height="450" viewBox="0 0 401 450">
  <desc>Created with Highcharts 7.2.2</desc>
  <defs>
    <clipPath id="highcharts-lsckd8o-1-">
      <rect x="0" y="0" width="329" height="359" fill="none"/>
    </clipPath>
    <clipPath id="highcharts-lsckd8o-17-">
      <rect x="67" y="20" width="329" height="359" fill="none"/>
    </clipPath>
  </defs>
  <g class="highcharts-grid highcharts-xaxis-grid" data-z-index="1">
    <path fill="none" stroke-dasharray="none,none" data-z-index="1" class="highcharts-grid-line" d="M 91.5 20 L 91.5 379" opacity="1"/>
    <path fill="none" stroke-dasharray="none,none" data-z-index="1" class="highcharts-grid-line" d="M 117.5 20 L 117.5 379" opacity="1"/>
    <path fill="none" stroke-dasharray="none,none" data-z-index="1" class="highcharts-grid-line" d="M 142.5 20 L 142.5 379" opacity="1"/>
    <path fill="none" stroke-dasharray="none,none" data-z-index="1" class="highcharts-grid-line" d="M 167.5 20 L 167.5 379" opacity="1"/>
    <path fill="none" stroke-dasharray="none,none" data-z-index="1" class="highcharts-grid-line" d="M 193.5 20 L 193.5 379" opacity="1"/>
    <path fill="none" stroke-dasharray="none,none" data-z-index="1" class="highcharts-grid-line" d="M 218.5 20 L 218.5 379" opacity="1"/>
    <path fill="none" stroke-dasharray="none,none" data-z-index="1" class="highcharts-grid-line" d="M 243.5 20 L 243.5 379" opacity="1"/>
    <path fill="none" stroke-dasharray="none,none" data-z-index="1" class="highcharts-grid-line" d="M 268.5 20 L 268.5 379" opacity="1"/>
    <path fill="none" stroke-dasharray="none,none" data-z-index="1" class="highcharts-grid-line" d="M 294.5 20 L 294.5 379" opacity="1"/>
    <path fill="none" stroke-dasharray="none,none" data-z-index="1" class="highcharts-grid-line" d="M 319.5 20 L 319.5 379" opacity="1"/>
    <path fill="none" stroke-dasharray="none,none" data-z-index="1" class="highcharts-grid-line" d="M 344.5 20 L 344.5 379" opacity="1"/>
    <path fill="none" stroke-dasharray="none,none" data-z-index="1" class="highcharts-grid-line" d="M 370.5 20 L 370.5 379" opacity="1"/>
    <path fill="none" stroke-dasharray="none,none" data-z-index="1" class="highcharts-grid-line" d="M 395.5 20 L 395.5 379" opacity="1"/>
    <path fill="none" stroke-dasharray="none,none" data-z-index="1" class="highcharts-grid-line" d="M 66.5 20 L 66.5 379" opacity="1"/>
  </g>
  <g class="highcharts-grid highcharts-yaxis-grid" data-z-index="1">
    <path fill="none" stroke="#cdcdcd" stroke-width="1" stroke-dasharray="1,1" data-z-index="1" class="highcharts-grid-line" d="M 67 379.5 L 396 379.5" opacity="1"/>
    <path fill="none" stroke="#cdcdcd" stroke-width="1" stroke-dasharray="1,1" data-z-index="1" class="highcharts-grid-line" d="M 67 319.5 L 396 319.5" opacity="1"/>
    <path fill="none" stroke="#cdcdcd" stroke-width="1" stroke-dasharray="1,1" data-z-index="1" class="highcharts-grid-line" d="M 67 259.5 L 396 259.5" opacity="1"/>
    <path fill="none" stroke="#cdcdcd" stroke-width="1" stroke-dasharray="1,1" data-z-index="1" class="highcharts-grid-line" d="M 67 200.5 L 396 200.5" opacity="1"/>
    <path fill="none" stroke="#cdcdcd" stroke-width="1" stroke-dasharray="1,1" data-z-index="1" class="highcharts-grid-line" d="M 67 140.5 L 396 140.5" opacity="1"/>
    <path fill="none" stroke="#cdcdcd" stroke-width="1" stroke-dasharray="1,1" data-z-index="1" class="highcharts-grid-line" d="M 67 80.5 L 396 80.5" opacity="1"/>
    <path fill="none" stroke="#cdcdcd" stroke-width="1" stroke-dasharray="1,1" data-z-index="1" class="highcharts-grid-line" d="M 67 19.5 L 396 19.5" opacity="1"/>
  </g>
  <g>
    <text x="30" y="379">0</text>
    <text x="30" y="319">25</text>
    <text x="30" y="259">50</text>
    <text x="30" y="200">75</text>
    <text x="30" y="140">100</text>
    <text x="30" y="80" >125</text>
    <text x="30" y="19">150</text>
  </g>

  <rect fill="none" class="highcharts-plot-border" data-z-index="1" x="67" y="20" width="329" height="359"/>
  <g class="highcharts-axis highcharts-xaxis" data-z-index="2">
    <path fill="none" class="highcharts-axis-line" data-z-index="7" d="M 67 379 L 396 379"/>
  </g>
  <g class="highcharts-axis highcharts-yaxis" data-z-index="2">
    <text x="23" data-z-index="7" text-anchor="middle" transform="translate(0,0) rotate(270 23 199.5)" class="highcharts-axis-title" style="color:#808080;font-size:10px;font-weight:normal;fill:#808080;" y="199.5">
      <tspan>Number of exposed records in millions</tspan>
    </text>
    <path fill="none" class="highcharts-axis-line" data-z-index="7" d="M 67 20 L 67 379"/>
  </g>
  <path fill="none" class="highcharts-crosshair highcharts-crosshair-category undefined" data-z-index="2" stroke="#C0C0C0" stroke-width="1" style="pointer-events:none;" stroke-dasharray="1,1" visibility="hidden" d="M 626.5 20 L 626.5 379"/>
  <g class="highcharts-series-group" data-z-index="3">
    <g data-z-index="0.1" class="highcharts-series highcharts-series-0 highcharts-line-series highcharts-color-0" transform="translate(67,20) scale(1 1)" clip-path="url(#highcharts-lsckd8o-1-)">
      <path fill="none" d="M 12.653846153846 193.88393333333335 L 37.961538461538 168.68213333333333 L 63.269230769231 334.8512666666667 L 88.576923076923 58.06226666666663 L 113.88461538462 130.24519999999998 L 139.19230769231 312.52146666666664 L 164.5 325.254 L 189.80769230769 312.7368666666667 L 215.11538461538 351.0302 L 240.42307692308 345.7409333333333 L 265.73076923077 323.6265333333333 L 291.03846153846 333.98966666666666 L 316.34615384615 343.6587333333333" class="highcharts-graph" data-z-index="1" stroke="#2876dd" stroke-width="4" stroke-linejoin="round" stroke-linecap="round"/>
      <path fill="none" d="M 12.653846153846 193.88393333333335 L 12.653846153846 193.88393333333335 L 37.961538461538 168.68213333333333 L 63.269230769231 334.8512666666667 L 88.576923076923 58.06226666666663 L 113.88461538462 130.24519999999998 L 139.19230769231 312.52146666666664 L 164.5 325.254 L 189.80769230769 312.7368666666667 L 215.11538461538 351.0302 L 240.42307692308 345.7409333333333 L 265.73076923077 323.6265333333333 L 291.03846153846 333.98966666666666 L 316.34615384615 343.6587333333333 L 316.34615384615 343.6587333333333" visibility="visible" data-z-index="2" class="highcharts-tracker-line" stroke-linejoin="round" stroke="rgba(192,192,192,0.0001)" stroke-width="4" style="cursor:pointer;"/>
    </g>
  </g>
  <g class="highcharts-exporting-group" data-z-index="3"/>
  <text x="203" text-anchor="middle" class="highcharts-title" data-z-index="4" style="color:#333333;font-size:18px;fill:#333333;" y="34"/>
  <text x="203" text-anchor="middle" class="highcharts-subtitle" data-z-index="4" style="color:#666666;fill:#666666;" y="34"/>
  <text x="10" text-anchor="start" class="highcharts-caption" data-z-index="4" style="color:#666666;fill:#666666;" y="447"/>
  <g class="highcharts-plot-lines-6" data-z-index="6">
    <path fill="none" class="highcharts-plot-line " stroke="#121212" stroke-width="1" d="M 67 379.5 L 396 379.5"/>
  </g>
  <g class="highcharts-axis-labels highcharts-xaxis-labels" data-z-index="7">
    <text x="82.2465710181965" style="color:#666666;cursor:default;font-size:11px;padding-bottom:18px;line-height:12px;text-align:center;fill:#666666;" text-anchor="end" transform="translate(0,0) rotate(-45 82.2465710181965 399)" y="399" opacity="1">
      <tspan>Q1 2020</tspan>
    </text>
    <text x="107.5542633258845" style="color:#666666;cursor:default;font-size:11px;padding-bottom:18px;line-height:12px;text-align:center;fill:#666666;" text-anchor="end" transform="translate(0,0) rotate(-45 107.5542633258845 399)" y="399" opacity="1">
      <tspan>Q2 2020</tspan>
    </text>
    <text x="132.86195563358453" style="color:#666666;cursor:default;font-size:11px;padding-bottom:18px;line-height:12px;text-align:center;fill:#666666;" text-anchor="end" transform="translate(0,0) rotate(-45 132.86195563358453 399)" y="399" opacity="1">
      <tspan>Q3 2020</tspan>
    </text>
    <text x="158.16964794127452" style="color:#666666;cursor:default;font-size:11px;padding-bottom:18px;line-height:12px;text-align:center;fill:#666666;" text-anchor="end" transform="translate(0,0) rotate(-45 158.16964794127452 399)" y="399" opacity="1">
      <tspan>Q4 2020</tspan>
    </text>
    <text x="183.47734024896454" style="color:#666666;cursor:default;font-size:11px;padding-bottom:18px;line-height:12px;text-align:center;fill:#666666;" text-anchor="end" transform="translate(0,0) rotate(-45 183.47734024896454 399)" y="399" opacity="1">
      <tspan>Q1 2021</tspan>
    </text>
    <text x="208.78503255665453" style="color:#666666;cursor:default;font-size:11px;padding-bottom:18px;line-height:12px;text-align:center;fill:#666666;" text-anchor="end" transform="translate(0,0) rotate(-45 208.78503255665453 399)" y="399" opacity="1">
      <tspan>Q2 2021</tspan>
    </text>
    <text x="234.09272486435452" style="color:#666666;cursor:default;font-size:11px;padding-bottom:18px;line-height:12px;text-align:center;fill:#666666;" text-anchor="end" transform="translate(0,0) rotate(-45 234.09272486435452 399)" y="399" opacity="1">
      <tspan>Q3 2021</tspan>
    </text>
    <text x="259.4004171720445" style="color:#666666;cursor:default;font-size:11px;padding-bottom:18px;line-height:12px;text-align:center;fill:#666666;" text-anchor="end" transform="translate(0,0) rotate(-45 259.4004171720445 399)" y="399" opacity="1">
      <tspan>Q4 2021</tspan>
    </text>
    <text x="284.7081094797345" style="color:#666666;cursor:default;font-size:11px;padding-bottom:18px;line-height:12px;text-align:center;fill:#666666;" text-anchor="end" transform="translate(0,0) rotate(-45 284.7081094797345 399)" y="399" opacity="1">
      <tspan>Q1 2022</tspan>
    </text>
    <text x="310.01580178742455" style="color:#666666;cursor:default;font-size:11px;padding-bottom:18px;line-height:12px;text-align:center;fill:#666666;" text-anchor="end" transform="translate(0,0) rotate(-45 310.01580178742455 399)" y="399" opacity="1">
      <tspan>Q2 2022</tspan>
    </text>
    <text x="335.32349409512454" style="color:#666666;cursor:default;font-size:11px;padding-bottom:18px;line-height:12px;text-align:center;fill:#666666;" text-anchor="end" transform="translate(0,0) rotate(-45 335.32349409512454 399)" y="399" opacity="1">
      <tspan>Q3 2022</tspan>
    </text>
    <text x="360.63118640281454" style="color:#666666;cursor:default;font-size:11px;padding-bottom:18px;line-height:12px;text-align:center;fill:#666666;" text-anchor="end" transform="translate(0,0) rotate(-45 360.63118640281454 399)" y="399" opacity="1">
      <tspan>Q4 2022</tspan>
    </text>
    <text x="385.9388787105045" style="color:#666666;cursor:default;font-size:11px;padding-bottom:18px;line-height:12px;text-align:center;fill:#666666;" text-anchor="end" transform="translate(0,0) rotate(-45 385.9388787105045 399)" y="399" opacity="1">
      <tspan>Q1 2023</tspan>
    </text>
  </g>
  <g class="highcharts-axis-labels highcharts-yaxis-labels" data-z-index="7"/>
  <g class="highcharts-label highcharts-tooltip            highcharts-color-0" style="pointer-events:none;white-space:nowrap;z-index:9999;" data-z-index="8" transform="translate(541,-9999)" opacity="0" visibility="visible">
    <path fill="rgba(255,255,255,1)" class="highcharts-label-box highcharts-tooltip-box" d="M 2.5 0.5 L 160.5 0.5 C 162.5 0.5 162.5 0.5 162.5 2.5 L 162.5 76.5 C 162.5 78.5 162.5 78.5 160.5 78.5 L 91.5 78.5 85.5 84.5 79.5 78.5 2.5 78.5 C 0.5 78.5 0.5 78.5 0.5 76.5 L 0.5 2.5 C 0.5 0.5 0.5 0.5 2.5 0.5" stroke="#aaaaaa" stroke-width="1"/>
  </g>
  <g class="highcharts-control-points" data-z-index="99" clip-path="url(#highcharts-lsckd8o-17-)"/>
</svg>
