
<svg xmlns="http://www.w3.org/2000/svg" version="1.1"  viewBox="0 0 500 500" class="features-sunburst">
  <g transform="translate(250 250)">
    <g>
      <path d="M0.49999966666673806,-175.77598416660925 A175.7766952966369,175.7766952966369 0 0 1 60.58877329503632,165.00438527508723 L43.22202189181536,117.28962794545575 A125,125 0 0 0 0.4999996666667353,-124.99899999733331 Z" fill-opacity="0.8" fill="rgba(98.04%,69.41%,51.76%,1)" id="cat-access"/>
      <path d="M0.4999996666667509,-215.50577091679264 A215.50635094610965,215.50635094610965 0 0 1 212.14492998677946,-37.91458794464492 L174.00353968434942,-31.18923175259431 A176.7766952966369,176.7766952966369 0 0 0 0.49999966666673185,-176.7759881893843 Z" fill-opacity="0.8" fill="rgba(93.73%,47.06%,37.65%,1)" id="cat-backup"/>
      <path d="M0.49999966666673606,-248.99949799213115 A249,249 0 0 1 159.67077016129886,-191.06607536686798 L138.78420672679397,-166.17443835684992 A216.50635094610965,216.50635094610965 0 0 0 0.49999966666674145,-216.50577359584045 Z" fill-opacity="0.8" fill="rgba(83.14%,23.92%,35.69%,1)" id="cat-cloud"/>
      <path d="M160.43681409372164,-190.42328818570644 A249,249 0 0 1 245.12981208784774,-43.73071261455099 L213.12974037813873,-38.088236587523625 A216.50635094610965,216.50635094610965 0 0 0 139.55025065921674,-165.53165117568835 Z" fill-opacity="0.8" fill="rgba(83.14%,23.92%,35.69%,1)" id="cat-usb"/>
      <path d="M212.31857804868096,-36.929780848171085 A215.50635094610965,215.50635094610965 0 0 1 186.88347210942547,107.31987304517914 L153.34249638443808,87.95498168147498 A176.7766952966369,176.7766952966369 0 0 0 174.17718774625092,-30.20442465612047 Z" fill-opacity="0.8" fill="rgba(93.73%,47.06%,37.65%,1)" id="cat-privacy"/>
      <path d="M245.30346014974927,-42.745905518077144 A249,249 0 0 1 215.8898906240913,124.0667365828484 L187.74949983333337,107.81987438470306 A216.50635094610965,216.50635094610965 0 0 0 213.30338844004024,-37.10342949104979 Z" fill-opacity="0.8" fill="rgba(83.14%,23.92%,35.69%,1)" id="cat-sbc"/>
      <path d="M186.38347244275872,108.18589787161343 A215.50635094610965,215.50635094610965 0 0 1 74.17716065363233,202.33817270963232 L60.93079481423208,165.9440816760452 A176.7766952966369,176.7766952966369 0 0 0 152.84249671777133,88.82100650790926 Z" fill-opacity="0.8" fill="rgba(93.73%,47.06%,37.65%,1)" id="cat-mobile"/>
      <path d="M215.3898909574246,124.93276140928268 A249,249 0 0 1 85.63268998845042,233.81198088494511 L74.5191817132463,203.2778678478997 A216.50635094610965,216.50635094610965 0 0 0 187.24950016666665,108.68589921113734 Z" fill-opacity="0.8" fill="rgba(83.14%,23.92%,35.69%,1)" id="cat-native"/>
      <path d="M59.649081300712055,165.3464051903995 A175.7766952966369,175.7766952966369 0 0 1 -173.19237603157868,-30.03077577990589 L-123.18680834709758,-21.21344501148858 A125,125 0 0 0 42.282329897491074,117.63164786076803 Z" fill-opacity="0.8" fill="rgba(68.37%,64.84%,63.66%,1)" id="cat-retrieval"/>
      <path d="M73.23746865930802,202.6801926249446 A215.50635094610965,215.50635094610965 0 0 1 -73.23746865930791,202.68019262494465 L-59.991102819907724,166.2861015913575 A176.7766952966369,176.7766952966369 0 0 0 59.99110281990782,166.28610159135744 Z" fill-opacity="0.8" fill="rgba(51.11%,47.84%,46.67%,1)" id="cat-tags"/>
      <path d="M-74.1771606536322,202.33817270963237 A215.50635094610965,215.50635094610965 0 0 1 -186.38347244275866,108.18589787161353 L-152.84249671777127,88.82100650790937 A176.7766952966369,176.7766952966369 0 0 0 -60.930794814231994,165.94408167604522 Z" fill-opacity="0.8" fill="rgba(51.11%,47.84%,46.67%,1)" id="cat-sender"/>
      <path d="M-186.8834721094254,107.31987304517925 A215.50635094610965,215.50635094610965 0 0 1 -212.318578048681,-36.929780848171006 L-174.17718774625095,-30.20442465612038 A176.7766952966369,176.7766952966369 0 0 0 -153.34249638443802,87.95498168147505 Z" fill-opacity="0.8" fill="rgba(51.11%,47.84%,46.67%,1)" id="cat-search"/>
      <path d="M-173.01872796967714,-31.015582876379792 A175.7766952966369,175.7766952966369 0 0 1 -0.4999996666667987,-175.77598416660925 L-0.4999996666667783,-124.99899999733331 A125,125 0 0 0 -123.01316028519607,-22.19825210796246 Z" fill-opacity="0.8" fill="rgba(43.27%,72.16%,71.76%,1)" id="cat-productivity"/>
      <path d="M-212.1449299867795,-37.91458794464485 A215.50635094610965,215.50635094610965 0 0 1 -0.49999966666677725,-215.50577091679264 L-0.4999996666667142,-176.7759881893843 A176.7766952966369,176.7766952966369 0 0 0 -174.00353968434945,-31.18923175259427 Z" fill-opacity="0.8" fill="rgba(18.43%,56.34%,56.47%,1)" id="cat-tasks"/>
      <path d="M-245.12981208784777,-43.73071261455089 A249,249 0 0 1 -0.4999996666668772,-248.99949799213115 L-0.49999966666676793,-216.50577359584045 A216.50635094610965,216.50635094610965 0 0 0 -213.12974037813876,-38.08823658752355 Z" fill-opacity="0.8" fill="rgba(0%,40%,40.39%,1)" id="cat-workflows"/>
    </g>
    <g>
      <text dy="28">
        <textPath href="#cat-workflows" startOffset="15%" alignment-baseline="central" text-anchor="middle" class="categoryLabel">workflows</textPath>
      </text>
      <text dy="28">
        <textPath href="#cat-tasks" startOffset="15%" alignment-baseline="central" text-anchor="middle" class="categoryLabel">tasks</textPath>
      </text>
      <text dy="28">
        <textPath href="#cat-productivity" startOffset="15%" alignment-baseline="central" text-anchor="middle" class="categoryLabel">productivity</textPath>
      </text>
      <text dy="28">
        <textPath href="#cat-search" startOffset="15%" alignment-baseline="central" text-anchor="middle" class="categoryLabel">search</textPath>
      </text>
      <text dy="28">
        <textPath href="#cat-sender" startOffset="15%" alignment-baseline="central" text-anchor="middle" class="categoryLabel">sender</textPath>
      </text>
      <text dy="28">
        <textPath href="#cat-tags" startOffset="15%" alignment-baseline="central" text-anchor="middle" class="categoryLabel">tags</textPath>
      </text>
      <text dy="28">
        <textPath href="#cat-retrieval" startOffset="15%" alignment-baseline="central" text-anchor="middle" class="categoryLabel">retrieval</textPath>
      </text>
      <text dy="28">
        <textPath href="#cat-native" startOffset="15%" alignment-baseline="central" text-anchor="middle" class="categoryLabel">native</textPath>
      </text>
      <text dy="28">
        <textPath href="#cat-mobile" startOffset="15%" alignment-baseline="central" text-anchor="middle" class="categoryLabel">mobile</textPath>
      </text>
      <text dy="28">
        <textPath href="#cat-sbc" startOffset="15%" alignment-baseline="central" text-anchor="middle" class="categoryLabel">sbc</textPath>
      </text>
      <text dy="28">
        <textPath href="#cat-privacy" startOffset="15%" alignment-baseline="central" text-anchor="middle" class="categoryLabel">privacy</textPath>
      </text>
      <text dy="28">
        <textPath href="#cat-usb" startOffset="15%" alignment-baseline="central" text-anchor="middle" class="categoryLabel">usb</textPath>
      </text>
      <text dy="28">
        <textPath href="#cat-cloud" startOffset="15%" alignment-baseline="central" text-anchor="middle" class="categoryLabel">cloud</textPath>
      </text>
      <text dy="28">
        <textPath href="#cat-backup" startOffset="15%" alignment-baseline="central" text-anchor="middle" class="categoryLabel">backup</textPath>
      </text>
      <text dy="28">
        <textPath href="#cat-access" startOffset="15%" alignment-baseline="central" text-anchor="middle" class="categoryLabel">access</textPath>
      </text>
      <text dy="28">
        <textPath href="#cat-missing" startOffset="15%" alignment-baseline="central" text-anchor="middle" class="categoryLabel">missing</textPath>
      </text>
    </g>
    <g pointer-events="all">
      <path d="M1.5308084989341916e-14,-250 A250,250 0 0 1 85.5050358314172,234.92315519647707 L42.7525179157086,117.46157759823853 A125,125 0 0 0 7.654042494670958e-15,-125 Z" fill="none"/>
      <path d="M1.5308084989341916e-14,-250 A250,250 0 0 1 246.201938253052,-43.41204441673259 L174.09106008000472,-30.696950992243213 A176.7766952966369,176.7766952966369 0 0 0 1.0824450702943666e-14,-176.7766952966369 Z" fill="none"/>
      <path d="M1.5308084989341916e-14,-250 A250,250 0 0 1 160.69690242163483,-191.5111107797445 L139.16759980660484,-165.85348704223458 A216.50635094610965,216.50635094610965 0 0 0 1.3257190484061335e-14,-216.50635094610965 Z" fill="none"/>
      <path d="M160.69690242163483,-191.5111107797445 A250,250 0 0 1 246.201938253052,-43.41204441673259 L213.2171329881108,-37.59593329510882 A216.50635094610965,216.50635094610965 0 0 0 139.16759980660484,-165.85348704223458 Z" fill="none"/>
      <path d="M246.201938253052,-43.41204441673259 A250,250 0 0 1 216.50635094610968,124.99999999999996 L153.09310892394865,88.38834764831842 A176.7766952966369,176.7766952966369 0 0 0 174.09106008000472,-30.696950992243213 Z" fill="none"/>
      <path d="M246.201938253052,-43.41204441673259 A250,250 0 0 1 216.50635094610968,124.99999999999996 L187.5,108.25317547305478 A216.50635094610965,216.50635094610965 0 0 0 213.2171329881108,-37.59593329510882 Z" fill="none"/>
      <path d="M216.50635094610968,124.99999999999996 A250,250 0 0 1 85.5050358314172,234.92315519647707 L60.46119066199383,166.11575609716866 A176.7766952966369,176.7766952966369 0 0 0 153.09310892394865,88.38834764831842 Z" fill="none"/>
      <path d="M216.50635094610968,124.99999999999996 A250,250 0 0 1 85.5050358314172,234.92315519647707 L74.04953318150598,203.44942033734338 A216.50635094610965,216.50635094610965 0 0 0 187.5,108.25317547305478 Z" fill="none"/>
      <path d="M85.5050358314172,234.92315519647707 A250,250 0 0 1 -246.20193825305202,-43.412044416732506 L-123.10096912652601,-21.706022208366253 A125,125 0 0 0 42.7525179157086,117.46157759823853 Z" fill="none"/>
      <path d="M85.5050358314172,234.92315519647707 A250,250 0 0 1 -85.50503583141706,234.92315519647713 L-60.46119066199373,166.1157560971687 A176.7766952966369,176.7766952966369 0 0 0 60.46119066199383,166.11575609716866 Z" fill="none"/>
      <path d="M-85.50503583141706,234.92315519647713 A250,250 0 0 1 -216.50635094610962,125.00000000000009 L-153.09310892394862,88.3883476483185 A176.7766952966369,176.7766952966369 0 0 0 -60.46119066199373,166.1157560971687 Z" fill="none"/>
      <path d="M-216.50635094610962,125.00000000000009 A250,250 0 0 1 -246.20193825305202,-43.412044416732506 L-174.09106008000475,-30.696950992243156 A176.7766952966369,176.7766952966369 0 0 0 -153.09310892394862,88.3883476483185 Z" fill="none"/>
      <path d="M-246.20193825305202,-43.412044416732506 A250,250 0 0 1 -4.5924254968025744e-14,-250 L-2.2962127484012872e-14,-125 A125,125 0 0 0 -123.10096912652601,-21.706022208366253 Z" fill="none"/>
      <path d="M-246.20193825305202,-43.412044416732506 A250,250 0 0 1 -4.5924254968025744e-14,-250 L-3.2473352108831e-14,-176.7766952966369 A176.7766952966369,176.7766952966369 0 0 0 -174.09106008000475,-30.696950992243156 Z" fill="none"/>
      <path d="M-246.20193825305202,-43.412044416732506 A250,250 0 0 1 -4.5924254968025744e-14,-250 L-3.9771571452184006e-14,-216.50635094610965 A216.50635094610965,216.50635094610965 0 0 0 -213.21713298811082,-37.59593329510875 Z" fill="none"/>
    </g>
  </g>
</svg>
