<?xml version="1.0" encoding="UTF-8" standalone="no"?>
<!-- Created with Inkscape (http://www.inkscape.org/) -->

<svg
   width="20mm"
   height="7mm"
   viewBox="0 0 20 7"
   version="1.1"
   id="svg5"
   xml:space="preserve"
   xmlns="http://www.w3.org/2000/svg"
   xmlns:svg="http://www.w3.org/2000/svg"><defs
     id="defs2" /><g
     id="layer1"><path
       style="fill:#3465a4;fill-opacity:1;stroke:none;stroke-width:0.0282521"
       d="M 4.2635721,1.6725064 C 4.1515525,3.0799984 3.556337,4.4453383 3.4442608,5.853819 c 0.1378138,0 0.4963331,0.064019 0.5950459,-0.045288 0.066986,-0.07419 0.069839,-0.2279098 0.088655,-0.3219893 L 4.2861737,4.6954824 C 4.4835995,3.7082407 4.8053063,2.6753434 4.8851185,1.6725064 H 4.2635721"
       id="path464" /><path
       style="fill:#3465a4;fill-opacity:1;stroke:none;stroke-width:0.0282521"
       d="m 17.513813,2.548322 0.525518,0.8758154 0.19039,0.3672775 -0.19768,0.3672774 -0.518228,0.8758155 c 0.186831,0 0.536648,0.067495 0.700285,-0.029044 0.214038,-0.1262869 0.356401,-0.6062621 0.486304,-0.8185202 0.08521,0.1977365 0.291816,0.7387079 0.490993,0.8305274 0.181916,0.083852 0.52436,0.017036 0.723847,0.017036 L 19.394726,4.1586922 19.194588,3.7631627 19.394726,3.3958852 19.915242,2.5483219 c -0.198272,0 -0.543231,-0.067381 -0.723536,0.017036 -0.188356,0.088203 -0.366317,0.5858358 -0.4348,0.7740231 h -0.0565 c -0.06721,-0.1846843 -0.252037,-0.6880239 -0.4348,-0.7740233 -0.186153,-0.087553 -0.546792,-0.017036 -0.751789,-0.017036 z"
       id="path525" /><path
       style="fill:#38414f;stroke:none;stroke-width:0.0282521"
       d="m 14.293072,2.9155994 h -0.02825 V 2.5200698 c -0.155697,0 -0.536083,-0.069896 -0.661015,0.029044 -0.111821,0.088571 -0.04528,0.4888179 -0.04528,0.6207553 v 1.8646394 h 0.706302 c 0,-0.4973219 -0.09151,-1.0963797 0.01466,-1.5821182 0.04283,-0.1960132 0.217286,-0.4051635 0.437371,-0.3835789 0.212032,0.020793 0.340975,0.2157048 0.362361,0.411831 0.05523,0.5061365 0.005,1.0445936 0.005,1.5538661 h 0.678051 c 0,-0.5074644 -0.104734,-1.1457927 0.01506,-1.6386224 0.0575,-0.2365268 0.317525,-0.3985243 0.54956,-0.2922965 0.221186,0.1012555 0.226441,0.3377824 0.226441,0.5465654 v 1.3843535 h 0.706303 V 3.6501543 c 0,-0.2657111 0.02621,-0.553035 -0.115665,-0.7909461 C 16.830479,2.3336906 15.876038,2.3500486 15.677426,2.9721036 15.596653,2.8338378 15.533905,2.6947244 15.394792,2.6039504 15.033306,2.368017 14.43326,2.4765898 14.293072,2.9155994"
       id="path523" /><path
       style="fill:#38414f;stroke:none;stroke-width:0.0282521"
       d="M 5.1958917,2.4635656 5.2249357,3.0707035 5.7326827,3.270898 6.9757755,3.6784064 5.1958924,4.2434487 V 4.8649951 L 6.9757748,4.2528566 7.6247824,3.9975988 7.6538255,3.311129 5.1958917,2.4635656"
       id="path521" /><path
       style="fill:#38414f;stroke:none;stroke-width:0.0282521"
       d="M 3.1617397,4.8649951 3.1326964,4.2632817 2.6814538,4.0833439 1.3536045,3.6784064 V 3.6501546 L 3.1617397,3.0851121 V 2.4635656 C 2.548132,2.6055325 1.9512497,2.8857087 1.3536045,3.0851121 1.2092474,3.1332821 0.7905907,3.2088846 0.72085318,3.3512188 0.66654978,3.4620518 0.65899518,3.9289179 0.74910528,4.0175731 0.88732024,4.1536069 1.2025884,4.1884135 1.3818565,4.2554275 1.9449212,4.465934 2.5696884,4.763118 3.1617397,4.8649951"
       id="path519" /><path
       style="fill:#38414f;stroke:none;stroke-width:0.0282521"
       d="m 12.061155,1.9267755 v 0.5932943 c -0.416746,0 -0.367277,0.1657834 -0.367277,0.5367902 h 0.367277 v 1.2148408 c 0,0.264016 0.01237,0.5229465 0.254383,0.6864698 0.264976,0.1790619 0.607504,0.127982 0.903954,0.1045898 V 4.5542218 c -0.1416,-8.46e-5 -0.308485,0.00953 -0.402818,-0.1190544 -0.08041,-0.1095899 -0.04921,-0.28981 -0.04921,-0.4177357 V 3.05686 h 0.452034 L 13.174208,2.549113 12.767462,2.52007 V 1.9267755 h -0.706303"
       id="path517" /><path
       style="fill:#38414f;stroke:none;stroke-width:0.0282521"
       d="m 9.1229353,1.6725064 v 3.3620014 h 0.7063028 c 0,-0.4809922 -0.1212015,-1.1513301 0.022715,-1.6103704 0.082439,-0.2629706 0.3984399,-0.4482763 0.6552229,-0.306818 0.222006,0.1222752 0.254297,0.3617683 0.254383,0.5893391 v 1.3278493 h 0.706302 c 0,-0.6340339 0.192792,-1.6514772 -0.168552,-2.2036365 -0.302241,-0.4618655 -1.243687,-0.498113 -1.4418187,0.084728 H 9.8292385 V 1.6725064 H 9.1229353"
       id="path515" /></g></svg>
